<?xml version="1.0" encoding="UTF-8"?>
<svg width="512" height="512" viewBox="0 0 512 512" fill="none" xmlns="http://www.w3.org/2000/svg">
  <!-- Background Circle -->
  <circle cx="256" cy="256" r="240" fill="#1a1a2e"/>
  
  <!-- Owl Body -->
  <ellipse cx="256" cy="300" rx="120" ry="140" fill="#16213e"/>
  
  <!-- Owl Belly -->
  <ellipse cx="256" cy="320" rx="80" ry="100" fill="#0f3460"/>
  
  <!-- Left Wing -->
  <ellipse cx="140" cy="280" rx="50" ry="80" fill="#16213e" transform="rotate(-20 140 280)"/>
  
  <!-- Right Wing -->
  <ellipse cx="372" cy="280" rx="50" ry="80" fill="#16213e" transform="rotate(20 372 280)"/>
  
  <!-- Left Eye Outer -->
  <circle cx="200" cy="200" r="45" fill="#e94560"/>
  
  <!-- Right Eye Outer -->
  <circle cx="312" cy="200" r="45" fill="#e94560"/>
  
  <!-- Left Eye Inner -->
  <circle cx="200" cy="200" r="35" fill="#ffffff"/>
  
  <!-- Right Eye Inner -->
  <circle cx="312" cy="200" r="35" fill="#ffffff"/>
  
  <!-- Left Pupil -->
  <circle cx="200" cy="200" r="18" fill="#1a1a2e"/>
  
  <!-- Right Pupil -->
  <circle cx="312" cy="200" r="18" fill="#1a1a2e"/>
  
  <!-- Left Eye Highlight -->
  <circle cx="208" cy="192" r="8" fill="#ffffff"/>
  
  <!-- Right Eye Highlight -->
  <circle cx="320" cy="192" r="8" fill="#ffffff"/>
  
  <!-- Beak -->
  <polygon points="256,240 236,280 276,280" fill="#f39c12"/>
  
  <!-- Left Ear Tuft -->
  <polygon points="160,130 140,80 180,110" fill="#16213e"/>
  
  <!-- Right Ear Tuft -->
  <polygon points="352,130 372,80 332,110" fill="#16213e"/>
  
  <!-- Left Foot -->
  <ellipse cx="210" cy="430" rx="25" ry="15" fill="#f39c12"/>
  <rect x="195" y="420" width="10" height="20" fill="#f39c12"/>
  <rect x="215" y="420" width="10" height="20" fill="#f39c12"/>
  
  <!-- Right Foot -->
  <ellipse cx="302" cy="430" rx="25" ry="15" fill="#f39c12"/>
  <rect x="287" y="420" width="10" height="20" fill="#f39c12"/>
  <rect x="307" y="420" width="10" height="20" fill="#f39c12"/>
  
  <!-- Feather Details -->
  <path d="M200 350 Q220 370 240 350" stroke="#0f3460" stroke-width="3" fill="none"/>
  <path d="M220 370 Q240 390 260 370" stroke="#0f3460" stroke-width="3" fill="none"/>
  <path d="M240 350 Q260 370 280 350" stroke="#0f3460" stroke-width="3" fill="none"/>
  <path d="M260 370 Q280 390 300 370" stroke="#0f3460" stroke-width="3" fill="none"/>
  <path d="M280 350 Q300 370 320 350" stroke="#0f3460" stroke-width="3" fill="none"/>
</svg>